# xmcd
#
# Track frame offsets:
#	150
#	18115
#	35999
#	54942
#	69025
#	86639
#	106046
#	124858
#	141248
#	158327
#	174377
#	188461
#
# Disc length: 2774 seconds
#
# Revision: 3
# Processed by: cddbd v1.5.2PL0 Copyright (c) Steve Scherf et al.
# Submitted via: audiograbber 1.83.01
#
DISCID=890ad40c
DTITLE=Carpendale, Howard - Symphonie meines Lebens-VSP2607
DYEAR=2019
DGENRE=deutsche Schlager
TTITLE0=Hello again
TTITLE1=Unter einem Himmel
TTITLE2=Ti amo
TTITLE3=Wem ...
TTITLE4=Eine Nacht in New York
TTITLE5=Deine Spuren im Sand ft. Patricia Kelly
TTITLE6=Nachts, wenn alles schläft
TTITLE7=Es geht um mehr
TTITLE8=Samstag nacht ft. Cliff Richard
TTITLE9=Tür an Tür mit Alice
TTITLE10=Laura Jane
TTITLE11=Symphonie meines Lebens
EXTD=
EXTT0=
EXTT1=
EXTT2=
EXTT3=
EXTT4=
EXTT5=
EXTT6=
EXTT7=
EXTT8=
EXTT9=
EXTT10=
EXTT11=
PLAYORDER=
